<svg fill="#000000" height="800px" width="800px" xmlns="http://www.w3.org/2000/svg" xmlns:xlink="http://www.w3.org/1999/xlink" viewBox="0 0 512.001 512.001" xml:space="preserve">
	<g>
		<g>
			<path d="M362.527,416.332c-1.925-8.601-6.233-16.495-12.614-22.867c-8.884-8.87-20.683-13.757-33.223-13.757H177.123
				c-5.94,0-10.774-4.833-10.774-10.774c0-2.88,1.122-5.591,3.14-7.614c2.042-2.038,4.754-3.16,7.635-3.16h121.719
				c98.745,0,179.079-80.334,179.079-179.079c0-47.83-18.625-92.802-52.446-126.635C391.644,18.626,346.671,0,298.842,0h-126.25
				c-22.252,0-40.928,15.552-45.762,36.355H102.81c-37.898,0-68.73,30.832-68.73,68.73c0,14.99,12.195,27.186,27.186,27.186h237.418
				c25.899,0,46.969,21.071,46.969,46.969c0,12.548-4.886,24.349-13.75,33.222c-8.88,8.872-20.678,13.758-33.219,13.758H176.975
				c-78.793,0-142.896,64.098-142.896,142.885c0,38.171,14.864,74.055,41.852,101.044c26.989,26.989,62.874,41.853,101.044,41.853
				h253.957c5.874,0,10.636-4.763,10.636-10.636c0-22.787-8.868-44.206-24.972-60.309C401.97,426.431,382.961,417.8,362.527,416.332z
				M176.975,490.729L176.975,490.729c-32.488-0.001-63.031-12.653-86.002-35.623c-22.971-22.971-35.621-53.513-35.621-86.001
				c0-67.057,54.56-121.613,121.623-121.613h121.708c18.22,0,35.356-7.096,48.261-19.988c12.885-12.897,19.98-30.037,19.98-48.263
				c0-37.628-30.613-68.241-68.241-68.241H61.265c-3.261,0-5.914-2.653-5.914-5.914c0-0.774,0.021-1.543,0.059-2.308h38.677
				c5.874,0,10.636-4.763,10.636-10.636c0-5.873-4.762-10.636-10.636-10.636H61.65c8.197-14.252,23.571-23.878,41.159-23.878h33.429
				h83.998c5.874,0,10.636-4.763,10.636-10.636s-4.762-10.636-10.636-10.636h-71.06c4.053-8.89,13.025-15.083,23.415-15.083h126.25
				c42.149,0,81.781,16.414,111.591,46.215c29.803,29.812,46.216,69.443,46.216,111.592c0,87.016-70.793,157.807-157.807,157.807
				h-121.72c-8.552,0-16.599,3.328-22.676,9.39c-6.042,6.058-9.37,14.104-9.37,22.657c0,17.67,14.376,32.047,32.046,32.047h139.566
				c6.863,0,13.324,2.677,18.192,7.539c2.22,2.216,3.983,4.767,5.244,7.544H177.123c-5.9,0-11.629-1.091-16.975-3.154
				c-10.166-3.959-18.683-11.368-24.042-20.773c-0.008-0.015-0.018-0.03-0.027-0.045c-0.354-0.624-0.696-1.257-1.022-1.899
				c-0.031-0.06-0.063-0.119-0.093-0.179c-0.262-0.519-0.507-1.048-0.75-1.577c-0.086-0.188-0.175-0.374-0.258-0.564
				c-0.173-0.394-0.335-0.793-0.498-1.192c-0.135-0.333-0.274-0.664-0.402-0.999c-0.096-0.25-0.182-0.504-0.273-0.755
				c-0.176-0.486-0.351-0.972-0.509-1.464c-0.031-0.093-0.056-0.188-0.086-0.282c-1.292-4.085-2.027-8.363-2.162-12.738
				c-0.002-0.083-0.01-0.165-0.012-0.249l-0.019-1.346c0-0.24-0.003-0.477,0.008-0.713c0.003-0.08,0.006-0.159,0.009-0.239
				l0.001-0.014c0.302-12.076,5.183-23.438,13.746-31.992c8.869-8.869,20.666-13.755,33.215-13.755h121.708
				c37.235,0,72.486-14.246,99.26-40.112c26.66-25.755,42.107-60.287,43.512-97.254c0.002-0.06,0.006-0.119,0.008-0.18v-0.01v-0.003
				v-0.002v-0.002c0.002-0.063,0.004-0.124,0.005-0.186l0.096-5.106c0.001-0.067,0.002-0.134,0.002-0.2
				c0-1.779-0.035-3.585-0.103-5.348v-0.011c0-0.011-0.001-0.022-0.002-0.033c-1.339-36.051-16.147-69.974-41.7-95.527
				c-25.472-25.472-59.262-40.263-95.162-41.682c-0.133-0.005-0.266-0.015-0.399-0.02c-0.005,0-0.011,0-0.016,0
				c-1.752-0.068-3.549-0.103-5.344-0.103h-15.986c-5.874,0-10.636,4.763-10.636,10.636s4.762,10.636,10.636,10.636h15.986
				c1.523,0,3.046,0.03,4.55,0.088c0.001,0,0.002,0,0.003,0c7.503,0.284,14.898,1.259,22.107,2.881
				c0.197,0.045,0.396,0.086,0.592,0.132c0.541,0.124,1.08,0.258,1.619,0.391c0.438,0.107,0.878,0.212,1.314,0.324
				c0.296,0.076,0.59,0.157,0.885,0.236c0.689,0.183,1.378,0.367,2.063,0.563c0.038,0.011,0.077,0.022,0.115,0.033
				c41.061,11.761,73.42,44.76,84.274,86.194c0.024,0.096,0.051,0.19,0.077,0.286c0.167,0.643,0.322,1.29,0.479,1.938
				c0.081,0.334,0.165,0.667,0.241,1.002c0.096,0.411,0.183,0.825,0.274,1.238c0.123,0.56,0.25,1.121,0.366,1.684
				c0.039,0.188,0.073,0.378,0.112,0.566c1.229,6.127,1.99,12.379,2.262,18.71c0.008,0.214,0.023,0.427,0.032,0.641
				c0.057,1.478,0.087,2.974,0.088,4.449l-0.093,4.881c-0.004,0.118-0.013,0.235-0.017,0.353
				c-1.266,30.462-13.846,59.125-35.457,80.747c-22.948,22.937-53.451,35.569-85.887,35.569H177.123
				c-17.995,0-34.987,6.935-47.847,19.524c-12.812,12.544-20.099,29.301-20.527,47.198c-0.001,0.02,0,0.041-0.001,0.062
				c0,0.011-0.001,0.022-0.002,0.033c0,0.008,0.001,0.017,0.001,0.026c-0.019,0.514-0.026,1.031-0.026,1.558
				c0,0.051,0,0.102,0.001,0.152l0.021,1.489c0,0.038,0.001,0.076,0.002,0.113c0.003,0.11,0.013,0.218,0.016,0.328
				c0.485,17.772,7.739,34.403,20.462,46.861c12.829,12.561,29.786,19.478,47.75,19.478h179.313c17.104,0,33.179,6.656,45.266,18.742
				c9.543,9.543,15.7,21.571,17.87,34.631H176.975z"/>
		</g>
	</g>
	<g>
		<g>
			<path d="M251.746,36.355h-3.191c-5.874,0-10.636,4.763-10.636,10.636s4.762,10.636,10.636,10.636h3.191
				c5.874,0,10.636-4.763,10.636-10.636S257.62,36.355,251.746,36.355z"/>
		</g>
	</g>
	<g>
		<g>
			<path d="M159.936,65.986c-5.874,0-10.636,4.763-10.636,10.636c0,2.264-1.842,4.105-4.105,4.105c-2.263,0-4.106-1.841-4.106-4.105
				c0-5.873-4.762-10.636-10.636-10.636c-5.874,0-10.636,4.763-10.636,10.636c0,13.993,11.385,25.378,25.378,25.378
				c13.994,0,25.378-11.385,25.378-25.378C170.572,70.749,165.81,65.986,159.936,65.986z"/>
		</g>
	</g>
</svg>
