<?xml version="1.0"?>
<svg width="16" height="16" xmlns="http://www.w3.org/2000/svg" xmlns:svg="http://www.w3.org/2000/svg" xmlns:xlink="http://www.w3.org/1999/xlink">
 <defs>
  <symbol height="16" id="svg_15" width="16" xmlns="http://www.w3.org/2000/svg" xmlns:svg="http://www.w3.org/2000/svg" xmlns:xlink="http://www.w3.org/1999/xlink">
   <defs>
    <symbol id="svg_14" viewBox="0 0 512 512" xmlns="http://www.w3.org/2000/svg" xmlns:xlink="http://www.w3.org/1999/xlink">
     <polygon fill="#FFFFFF" points="512,311.652 478.609,311.652 478.609,244.87 445.217,244.87 445.217,178.087   411.826,178.087 411.826,133.565 378.435,133.565 378.435,100.174 345.043,100.174 345.043,66.783 311.652,66.783 311.652,33.391   200.348,33.391 200.348,66.783 166.957,66.783 166.957,100.174 133.565,100.174 133.565,133.565 100.174,133.565 100.174,178.087   66.783,178.087 66.783,244.87 33.391,244.87 33.391,311.652 0,311.652 0,445.217 33.391,445.217 33.391,478.609 478.609,478.609   478.609,445.217 512,445.217 "/>
     <rect fill="#008000" height="200.35" width="267.13" x="122.44" y="278.26"/>
     <rect height="33.39" width="111.3" x="200.35" y="33.39"/>
     <rect height="33.39" width="33.39" x="311.65" y="66.78"/>
     <rect height="33.39" width="33.39" x="345.04" y="100.17"/>
     <rect height="44.52" width="33.39" x="378.44" y="133.56"/>
     <rect height="66.78" width="33.39" x="411.83" y="178.09"/>
     <rect height="66.78" width="33.39" x="445.22" y="244.87"/>
     <rect height="133.56" width="33.39" x="478.61" y="311.65"/>
     <rect height="133.56" width="33.39" y="311.65"/>
     <rect height="33.39" width="33.39" x="133.56" y="100.17"/>
     <rect height="44.52" width="33.39" x="100.17" y="133.56"/>
     <rect height="66.78" width="33.39" x="66.78" y="178.09"/>
     <rect height="66.78" width="33.39" x="33.39" y="244.87"/>
     <path d="m389.56,278.26l-267.12,0l0,166.96l-89.05,0l0,33.39l445.22,0l0,-33.39l-89.05,0l0,-166.96zm-66.78,166.96l0,-33.39l-33.39,0l0,33.39l-66.78,0l0,-33.39l-33.39,0l0,33.39l-33.39,0l0,-66.79l33.39,0l0,-33.39l-33.39,0l0,-33.39l33.39,0l0,33.39l33.39,0l0,-33.39l66.78,0l0,33.39l33.39,0l0,-33.39l33.39,0l0,66.78l-33.39,0l0,33.4l33.39,0l0,33.39l-33.39,0z"/>
     <rect height="33.39" width="33.39" x="256" y="345.04"/>
     <rect height="33.39" width="33.39" x="222.61" y="378.44"/>
     <rect height="33.39" width="33.39" x="166.96" y="66.78"/>
    </symbol>
   </defs>
   <g class="layer">
    <use fill="#000000" id="svg_13" x="0" xlink:href="#svg_14" y="-0.07"/>
   </g>
  </symbol>
 </defs>
 <g class="layer">
  <use id="svg_17" transform="matrix(0.920281 0 0 0.922992 0.0000708372 0.0550399)" x="0.67" xlink:href="#svg_15" y="0.29"/>
 </g>
</svg>
